<mxfile host="app.diagrams.net" agent="Mozilla/5.0 (Windows NT 10.0; Win64; x64) AppleWebKit/537.36 (KHTML, like Gecko) Chrome/130.0.0.0 Safari/537.36" version="24.8.9">
  <diagram name="Page-1" id="ltSwhHApkSYvvwapk0n0">
    <mxGraphModel dx="1434" dy="738" grid="1" gridSize="10" guides="1" tooltips="1" connect="1" arrows="1" fold="1" page="1" pageScale="1" pageWidth="1100" pageHeight="850" math="0" shadow="0">
      <root>
        <mxCell id="0" />
        <mxCell id="1" parent="0" />
        <mxCell id="OBBwC5ucLsxBwonSJFA--115" value="" style="edgeStyle=orthogonalEdgeStyle;rounded=0;orthogonalLoop=1;jettySize=auto;html=1;" parent="1" source="OBBwC5ucLsxBwonSJFA--16" target="OBBwC5ucLsxBwonSJFA--114" edge="1">
          <mxGeometry relative="1" as="geometry" />
        </mxCell>
        <mxCell id="OBBwC5ucLsxBwonSJFA--120" value="" style="edgeStyle=orthogonalEdgeStyle;rounded=0;orthogonalLoop=1;jettySize=auto;html=1;" parent="1" source="OBBwC5ucLsxBwonSJFA--16" target="OBBwC5ucLsxBwonSJFA--119" edge="1">
          <mxGeometry relative="1" as="geometry" />
        </mxCell>
        <mxCell id="OBBwC5ucLsxBwonSJFA--122" value="" style="edgeStyle=orthogonalEdgeStyle;rounded=0;orthogonalLoop=1;jettySize=auto;html=1;" parent="1" source="OBBwC5ucLsxBwonSJFA--16" target="OBBwC5ucLsxBwonSJFA--121" edge="1">
          <mxGeometry relative="1" as="geometry" />
        </mxCell>
        <mxCell id="OBBwC5ucLsxBwonSJFA--124" value="" style="edgeStyle=orthogonalEdgeStyle;rounded=0;orthogonalLoop=1;jettySize=auto;html=1;" parent="1" source="OBBwC5ucLsxBwonSJFA--16" target="OBBwC5ucLsxBwonSJFA--123" edge="1">
          <mxGeometry relative="1" as="geometry" />
        </mxCell>
        <mxCell id="OBBwC5ucLsxBwonSJFA--131" value="" style="edgeStyle=orthogonalEdgeStyle;rounded=0;orthogonalLoop=1;jettySize=auto;html=1;" parent="1" source="OBBwC5ucLsxBwonSJFA--16" target="OBBwC5ucLsxBwonSJFA--130" edge="1">
          <mxGeometry relative="1" as="geometry" />
        </mxCell>
        <mxCell id="OBBwC5ucLsxBwonSJFA--16" value="XDeliveryService" style="shape=table;startSize=30;container=1;collapsible=1;childLayout=tableLayout;fixedRows=1;rowLines=0;fontStyle=1;align=center;resizeLast=1;html=1;fontFamily=Verdana;" parent="1" vertex="1">
          <mxGeometry x="300" y="100" width="220" height="60" as="geometry" />
        </mxCell>
        <mxCell id="OBBwC5ucLsxBwonSJFA--17" value="" style="shape=tableRow;horizontal=0;startSize=0;swimlaneHead=0;swimlaneBody=0;fillColor=none;collapsible=0;dropTarget=0;points=[[0,0.5],[1,0.5]];portConstraint=eastwest;top=0;left=0;right=0;bottom=1;" parent="OBBwC5ucLsxBwonSJFA--16" vertex="1">
          <mxGeometry y="30" width="220" height="30" as="geometry" />
        </mxCell>
        <mxCell id="OBBwC5ucLsxBwonSJFA--18" value="PK" style="shape=partialRectangle;connectable=0;fillColor=none;top=0;left=0;bottom=0;right=0;fontStyle=1;overflow=hidden;whiteSpace=wrap;html=1;" parent="OBBwC5ucLsxBwonSJFA--17" vertex="1">
          <mxGeometry width="30" height="30" as="geometry">
            <mxRectangle width="30" height="30" as="alternateBounds" />
          </mxGeometry>
        </mxCell>
        <mxCell id="OBBwC5ucLsxBwonSJFA--19" value="XDeliveryServiceId" style="shape=partialRectangle;connectable=0;fillColor=none;top=0;left=0;bottom=0;right=0;align=left;spacingLeft=6;fontStyle=5;overflow=hidden;whiteSpace=wrap;html=1;fontFamily=Verdana;" parent="OBBwC5ucLsxBwonSJFA--17" vertex="1">
          <mxGeometry x="30" width="190" height="30" as="geometry">
            <mxRectangle width="190" height="30" as="alternateBounds" />
          </mxGeometry>
        </mxCell>
        <mxCell id="OBBwC5ucLsxBwonSJFA--43" value="&lt;font style=&quot;font-size: 15px;&quot;&gt;Delivery Service Configuration&lt;/font&gt;" style="rounded=0;whiteSpace=wrap;html=1;fontFamily=Verdana;" parent="1" vertex="1">
          <mxGeometry x="40" y="20" width="270" height="60" as="geometry" />
        </mxCell>
        <mxCell id="OBBwC5ucLsxBwonSJFA--76" value="&lt;font face=&quot;Verdana&quot;&gt;CDeliveryAddress&lt;/font&gt;" style="shape=table;startSize=30;container=1;collapsible=1;childLayout=tableLayout;fixedRows=1;rowLines=0;fontStyle=1;align=center;resizeLast=1;html=1;" parent="1" vertex="1">
          <mxGeometry x="850" y="550" width="180" height="170" as="geometry" />
        </mxCell>
        <mxCell id="OBBwC5ucLsxBwonSJFA--77" value="" style="shape=tableRow;horizontal=0;startSize=0;swimlaneHead=0;swimlaneBody=0;fillColor=none;collapsible=0;dropTarget=0;points=[[0,0.5],[1,0.5]];portConstraint=eastwest;top=0;left=0;right=0;bottom=1;" parent="OBBwC5ucLsxBwonSJFA--76" vertex="1">
          <mxGeometry y="30" width="180" height="30" as="geometry" />
        </mxCell>
        <mxCell id="OBBwC5ucLsxBwonSJFA--78" value="PK" style="shape=partialRectangle;connectable=0;fillColor=none;top=0;left=0;bottom=0;right=0;fontStyle=1;overflow=hidden;whiteSpace=wrap;html=1;" parent="OBBwC5ucLsxBwonSJFA--77" vertex="1">
          <mxGeometry width="30" height="30" as="geometry">
            <mxRectangle width="30" height="30" as="alternateBounds" />
          </mxGeometry>
        </mxCell>
        <mxCell id="OBBwC5ucLsxBwonSJFA--79" value="UniqueID" style="shape=partialRectangle;connectable=0;fillColor=none;top=0;left=0;bottom=0;right=0;align=left;spacingLeft=6;fontStyle=5;overflow=hidden;whiteSpace=wrap;html=1;" parent="OBBwC5ucLsxBwonSJFA--77" vertex="1">
          <mxGeometry x="30" width="150" height="30" as="geometry">
            <mxRectangle width="150" height="30" as="alternateBounds" />
          </mxGeometry>
        </mxCell>
        <mxCell id="OBBwC5ucLsxBwonSJFA--80" value="" style="shape=tableRow;horizontal=0;startSize=0;swimlaneHead=0;swimlaneBody=0;fillColor=none;collapsible=0;dropTarget=0;points=[[0,0.5],[1,0.5]];portConstraint=eastwest;top=0;left=0;right=0;bottom=0;" parent="OBBwC5ucLsxBwonSJFA--76" vertex="1">
          <mxGeometry y="60" width="180" height="50" as="geometry" />
        </mxCell>
        <mxCell id="OBBwC5ucLsxBwonSJFA--81" value="" style="shape=partialRectangle;connectable=0;fillColor=none;top=0;left=0;bottom=0;right=0;editable=1;overflow=hidden;whiteSpace=wrap;html=1;" parent="OBBwC5ucLsxBwonSJFA--80" vertex="1">
          <mxGeometry width="30" height="50" as="geometry">
            <mxRectangle width="30" height="50" as="alternateBounds" />
          </mxGeometry>
        </mxCell>
        <mxCell id="OBBwC5ucLsxBwonSJFA--82" value="&lt;font face=&quot;Verdana&quot;&gt;XDeliveryServiceId&lt;/font&gt;" style="shape=partialRectangle;connectable=0;fillColor=none;top=0;left=0;bottom=0;right=0;align=left;spacingLeft=6;overflow=hidden;whiteSpace=wrap;html=1;" parent="OBBwC5ucLsxBwonSJFA--80" vertex="1">
          <mxGeometry x="30" width="150" height="50" as="geometry">
            <mxRectangle width="150" height="50" as="alternateBounds" />
          </mxGeometry>
        </mxCell>
        <mxCell id="OBBwC5ucLsxBwonSJFA--83" value="" style="shape=tableRow;horizontal=0;startSize=0;swimlaneHead=0;swimlaneBody=0;fillColor=none;collapsible=0;dropTarget=0;points=[[0,0.5],[1,0.5]];portConstraint=eastwest;top=0;left=0;right=0;bottom=0;" parent="OBBwC5ucLsxBwonSJFA--76" vertex="1">
          <mxGeometry y="110" width="180" height="30" as="geometry" />
        </mxCell>
        <mxCell id="OBBwC5ucLsxBwonSJFA--84" value="" style="shape=partialRectangle;connectable=0;fillColor=none;top=0;left=0;bottom=0;right=0;editable=1;overflow=hidden;whiteSpace=wrap;html=1;" parent="OBBwC5ucLsxBwonSJFA--83" vertex="1">
          <mxGeometry width="30" height="30" as="geometry">
            <mxRectangle width="30" height="30" as="alternateBounds" />
          </mxGeometry>
        </mxCell>
        <mxCell id="OBBwC5ucLsxBwonSJFA--85" value="Row 2" style="shape=partialRectangle;connectable=0;fillColor=none;top=0;left=0;bottom=0;right=0;align=left;spacingLeft=6;overflow=hidden;whiteSpace=wrap;html=1;" parent="OBBwC5ucLsxBwonSJFA--83" vertex="1">
          <mxGeometry x="30" width="150" height="30" as="geometry">
            <mxRectangle width="150" height="30" as="alternateBounds" />
          </mxGeometry>
        </mxCell>
        <mxCell id="OBBwC5ucLsxBwonSJFA--86" value="" style="shape=tableRow;horizontal=0;startSize=0;swimlaneHead=0;swimlaneBody=0;fillColor=none;collapsible=0;dropTarget=0;points=[[0,0.5],[1,0.5]];portConstraint=eastwest;top=0;left=0;right=0;bottom=0;" parent="OBBwC5ucLsxBwonSJFA--76" vertex="1">
          <mxGeometry y="140" width="180" height="30" as="geometry" />
        </mxCell>
        <mxCell id="OBBwC5ucLsxBwonSJFA--87" value="" style="shape=partialRectangle;connectable=0;fillColor=none;top=0;left=0;bottom=0;right=0;editable=1;overflow=hidden;whiteSpace=wrap;html=1;" parent="OBBwC5ucLsxBwonSJFA--86" vertex="1">
          <mxGeometry width="30" height="30" as="geometry">
            <mxRectangle width="30" height="30" as="alternateBounds" />
          </mxGeometry>
        </mxCell>
        <mxCell id="OBBwC5ucLsxBwonSJFA--88" value="Row 3" style="shape=partialRectangle;connectable=0;fillColor=none;top=0;left=0;bottom=0;right=0;align=left;spacingLeft=6;overflow=hidden;whiteSpace=wrap;html=1;" parent="OBBwC5ucLsxBwonSJFA--86" vertex="1">
          <mxGeometry x="30" width="150" height="30" as="geometry">
            <mxRectangle width="150" height="30" as="alternateBounds" />
          </mxGeometry>
        </mxCell>
        <mxCell id="OBBwC5ucLsxBwonSJFA--94" value="&lt;font face=&quot;Verdana&quot;&gt;XProcessCountsItems&lt;/font&gt;" style="shape=table;startSize=30;container=1;collapsible=1;childLayout=tableLayout;fixedRows=1;rowLines=0;fontStyle=1;align=center;resizeLast=1;html=1;" parent="1" vertex="1">
          <mxGeometry x="270" y="285" width="180" height="150" as="geometry" />
        </mxCell>
        <mxCell id="OBBwC5ucLsxBwonSJFA--95" value="" style="shape=tableRow;horizontal=0;startSize=0;swimlaneHead=0;swimlaneBody=0;fillColor=none;collapsible=0;dropTarget=0;points=[[0,0.5],[1,0.5]];portConstraint=eastwest;top=0;left=0;right=0;bottom=1;" parent="OBBwC5ucLsxBwonSJFA--94" vertex="1">
          <mxGeometry y="30" width="180" height="30" as="geometry" />
        </mxCell>
        <mxCell id="OBBwC5ucLsxBwonSJFA--96" value="PK" style="shape=partialRectangle;connectable=0;fillColor=none;top=0;left=0;bottom=0;right=0;fontStyle=1;overflow=hidden;whiteSpace=wrap;html=1;" parent="OBBwC5ucLsxBwonSJFA--95" vertex="1">
          <mxGeometry width="30" height="30" as="geometry">
            <mxRectangle width="30" height="30" as="alternateBounds" />
          </mxGeometry>
        </mxCell>
        <mxCell id="OBBwC5ucLsxBwonSJFA--97" value="UniqueID" style="shape=partialRectangle;connectable=0;fillColor=none;top=0;left=0;bottom=0;right=0;align=left;spacingLeft=6;fontStyle=5;overflow=hidden;whiteSpace=wrap;html=1;" parent="OBBwC5ucLsxBwonSJFA--95" vertex="1">
          <mxGeometry x="30" width="150" height="30" as="geometry">
            <mxRectangle width="150" height="30" as="alternateBounds" />
          </mxGeometry>
        </mxCell>
        <mxCell id="OBBwC5ucLsxBwonSJFA--98" value="" style="shape=tableRow;horizontal=0;startSize=0;swimlaneHead=0;swimlaneBody=0;fillColor=none;collapsible=0;dropTarget=0;points=[[0,0.5],[1,0.5]];portConstraint=eastwest;top=0;left=0;right=0;bottom=0;" parent="OBBwC5ucLsxBwonSJFA--94" vertex="1">
          <mxGeometry y="60" width="180" height="30" as="geometry" />
        </mxCell>
        <mxCell id="OBBwC5ucLsxBwonSJFA--99" value="" style="shape=partialRectangle;connectable=0;fillColor=none;top=0;left=0;bottom=0;right=0;editable=1;overflow=hidden;whiteSpace=wrap;html=1;" parent="OBBwC5ucLsxBwonSJFA--98" vertex="1">
          <mxGeometry width="30" height="30" as="geometry">
            <mxRectangle width="30" height="30" as="alternateBounds" />
          </mxGeometry>
        </mxCell>
        <mxCell id="OBBwC5ucLsxBwonSJFA--100" value="&lt;font face=&quot;Verdana&quot;&gt;Name&lt;/font&gt;" style="shape=partialRectangle;connectable=0;fillColor=none;top=0;left=0;bottom=0;right=0;align=left;spacingLeft=6;overflow=hidden;whiteSpace=wrap;html=1;" parent="OBBwC5ucLsxBwonSJFA--98" vertex="1">
          <mxGeometry x="30" width="150" height="30" as="geometry">
            <mxRectangle width="150" height="30" as="alternateBounds" />
          </mxGeometry>
        </mxCell>
        <mxCell id="OBBwC5ucLsxBwonSJFA--101" value="" style="shape=tableRow;horizontal=0;startSize=0;swimlaneHead=0;swimlaneBody=0;fillColor=none;collapsible=0;dropTarget=0;points=[[0,0.5],[1,0.5]];portConstraint=eastwest;top=0;left=0;right=0;bottom=0;" parent="OBBwC5ucLsxBwonSJFA--94" vertex="1">
          <mxGeometry y="90" width="180" height="30" as="geometry" />
        </mxCell>
        <mxCell id="OBBwC5ucLsxBwonSJFA--102" value="" style="shape=partialRectangle;connectable=0;fillColor=none;top=0;left=0;bottom=0;right=0;editable=1;overflow=hidden;whiteSpace=wrap;html=1;" parent="OBBwC5ucLsxBwonSJFA--101" vertex="1">
          <mxGeometry width="30" height="30" as="geometry">
            <mxRectangle width="30" height="30" as="alternateBounds" />
          </mxGeometry>
        </mxCell>
        <mxCell id="OBBwC5ucLsxBwonSJFA--103" value="Row 2" style="shape=partialRectangle;connectable=0;fillColor=none;top=0;left=0;bottom=0;right=0;align=left;spacingLeft=6;overflow=hidden;whiteSpace=wrap;html=1;" parent="OBBwC5ucLsxBwonSJFA--101" vertex="1">
          <mxGeometry x="30" width="150" height="30" as="geometry">
            <mxRectangle width="150" height="30" as="alternateBounds" />
          </mxGeometry>
        </mxCell>
        <mxCell id="OBBwC5ucLsxBwonSJFA--104" value="" style="shape=tableRow;horizontal=0;startSize=0;swimlaneHead=0;swimlaneBody=0;fillColor=none;collapsible=0;dropTarget=0;points=[[0,0.5],[1,0.5]];portConstraint=eastwest;top=0;left=0;right=0;bottom=0;" parent="OBBwC5ucLsxBwonSJFA--94" vertex="1">
          <mxGeometry y="120" width="180" height="30" as="geometry" />
        </mxCell>
        <mxCell id="OBBwC5ucLsxBwonSJFA--105" value="" style="shape=partialRectangle;connectable=0;fillColor=none;top=0;left=0;bottom=0;right=0;editable=1;overflow=hidden;whiteSpace=wrap;html=1;" parent="OBBwC5ucLsxBwonSJFA--104" vertex="1">
          <mxGeometry width="30" height="30" as="geometry">
            <mxRectangle width="30" height="30" as="alternateBounds" />
          </mxGeometry>
        </mxCell>
        <mxCell id="OBBwC5ucLsxBwonSJFA--106" value="Row 3" style="shape=partialRectangle;connectable=0;fillColor=none;top=0;left=0;bottom=0;right=0;align=left;spacingLeft=6;overflow=hidden;whiteSpace=wrap;html=1;" parent="OBBwC5ucLsxBwonSJFA--104" vertex="1">
          <mxGeometry x="30" width="150" height="30" as="geometry">
            <mxRectangle width="150" height="30" as="alternateBounds" />
          </mxGeometry>
        </mxCell>
        <mxCell id="OBBwC5ucLsxBwonSJFA--109" value="" style="strokeWidth=2;html=1;shape=mxgraph.flowchart.annotation_2;align=left;labelPosition=right;pointerEvents=1;direction=west;" parent="1" vertex="1">
          <mxGeometry x="470" y="320" width="50" height="60" as="geometry" />
        </mxCell>
        <mxCell id="OBBwC5ucLsxBwonSJFA--110" value="Service Name will start with&amp;nbsp; LOC or LOC DELIVWITH" style="shape=note;size=20;whiteSpace=wrap;html=1;fontFamily=Verdana;" parent="1" vertex="1">
          <mxGeometry x="560" y="330" width="210" height="80" as="geometry" />
        </mxCell>
        <mxCell id="OBBwC5ucLsxBwonSJFA--126" value="" style="edgeStyle=orthogonalEdgeStyle;rounded=0;orthogonalLoop=1;jettySize=auto;html=1;" parent="1" source="OBBwC5ucLsxBwonSJFA--114" target="OBBwC5ucLsxBwonSJFA--125" edge="1">
          <mxGeometry relative="1" as="geometry" />
        </mxCell>
        <mxCell id="OBBwC5ucLsxBwonSJFA--114" value="Route" style="whiteSpace=wrap;html=1;fontFamily=Verdana;startSize=30;fontStyle=1;" parent="1" vertex="1">
          <mxGeometry x="60" y="230" width="120" height="60" as="geometry" />
        </mxCell>
        <mxCell id="OBBwC5ucLsxBwonSJFA--119" value="Location" style="whiteSpace=wrap;html=1;fontFamily=Verdana;startSize=30;fontStyle=1;" parent="1" vertex="1">
          <mxGeometry x="210" y="230" width="120" height="60" as="geometry" />
        </mxCell>
        <mxCell id="OBBwC5ucLsxBwonSJFA--121" value="Manifest" style="whiteSpace=wrap;html=1;fontFamily=Verdana;startSize=30;fontStyle=1;" parent="1" vertex="1">
          <mxGeometry x="350" y="230" width="120" height="60" as="geometry" />
        </mxCell>
        <mxCell id="OBBwC5ucLsxBwonSJFA--123" value="Delivery Product" style="whiteSpace=wrap;html=1;fontFamily=Verdana;startSize=30;fontStyle=1;" parent="1" vertex="1">
          <mxGeometry x="505" y="230" width="120" height="60" as="geometry" />
        </mxCell>
        <mxCell id="OBBwC5ucLsxBwonSJFA--125" value="ZipCodes" style="whiteSpace=wrap;html=1;fontFamily=Verdana;startSize=30;fontStyle=1;" parent="1" vertex="1">
          <mxGeometry x="60" y="330" width="120" height="60" as="geometry" />
        </mxCell>
        <mxCell id="OBBwC5ucLsxBwonSJFA--130" value="Contact" style="whiteSpace=wrap;html=1;fontFamily=Verdana;startSize=30;fontStyle=1;" parent="1" vertex="1">
          <mxGeometry x="670" y="230" width="120" height="60" as="geometry" />
        </mxCell>
        <mxCell id="OBBwC5ucLsxBwonSJFA--132" value="&lt;font style=&quot;font-size: 15px;&quot;&gt;Payroll Printing &amp;amp; Delivery&lt;/font&gt;" style="rounded=0;whiteSpace=wrap;html=1;fontFamily=Verdana;" parent="1" vertex="1">
          <mxGeometry x="1170" y="20" width="270" height="60" as="geometry" />
        </mxCell>
        <mxCell id="OBBwC5ucLsxBwonSJFA--147" value="" style="edgeStyle=orthogonalEdgeStyle;rounded=0;orthogonalLoop=1;jettySize=auto;html=1;" parent="1" source="OBBwC5ucLsxBwonSJFA--133" target="OBBwC5ucLsxBwonSJFA--146" edge="1">
          <mxGeometry relative="1" as="geometry" />
        </mxCell>
        <mxCell id="OBBwC5ucLsxBwonSJFA--133" value="CDeliveryLocation" style="shape=table;startSize=30;container=1;collapsible=1;childLayout=tableLayout;fixedRows=1;rowLines=0;fontStyle=1;align=center;resizeLast=1;html=1;" parent="1" vertex="1">
          <mxGeometry x="1220" y="120" width="180" height="150" as="geometry" />
        </mxCell>
        <mxCell id="OBBwC5ucLsxBwonSJFA--134" value="" style="shape=tableRow;horizontal=0;startSize=0;swimlaneHead=0;swimlaneBody=0;fillColor=none;collapsible=0;dropTarget=0;points=[[0,0.5],[1,0.5]];portConstraint=eastwest;top=0;left=0;right=0;bottom=1;" parent="OBBwC5ucLsxBwonSJFA--133" vertex="1">
          <mxGeometry y="30" width="180" height="30" as="geometry" />
        </mxCell>
        <mxCell id="OBBwC5ucLsxBwonSJFA--135" value="PK" style="shape=partialRectangle;connectable=0;fillColor=none;top=0;left=0;bottom=0;right=0;fontStyle=1;overflow=hidden;whiteSpace=wrap;html=1;" parent="OBBwC5ucLsxBwonSJFA--134" vertex="1">
          <mxGeometry width="30" height="30" as="geometry">
            <mxRectangle width="30" height="30" as="alternateBounds" />
          </mxGeometry>
        </mxCell>
        <mxCell id="OBBwC5ucLsxBwonSJFA--136" value="UniqueID" style="shape=partialRectangle;connectable=0;fillColor=none;top=0;left=0;bottom=0;right=0;align=left;spacingLeft=6;fontStyle=5;overflow=hidden;whiteSpace=wrap;html=1;" parent="OBBwC5ucLsxBwonSJFA--134" vertex="1">
          <mxGeometry x="30" width="150" height="30" as="geometry">
            <mxRectangle width="150" height="30" as="alternateBounds" />
          </mxGeometry>
        </mxCell>
        <mxCell id="OBBwC5ucLsxBwonSJFA--137" value="" style="shape=tableRow;horizontal=0;startSize=0;swimlaneHead=0;swimlaneBody=0;fillColor=none;collapsible=0;dropTarget=0;points=[[0,0.5],[1,0.5]];portConstraint=eastwest;top=0;left=0;right=0;bottom=0;" parent="OBBwC5ucLsxBwonSJFA--133" vertex="1">
          <mxGeometry y="60" width="180" height="30" as="geometry" />
        </mxCell>
        <mxCell id="OBBwC5ucLsxBwonSJFA--138" value="" style="shape=partialRectangle;connectable=0;fillColor=none;top=0;left=0;bottom=0;right=0;editable=1;overflow=hidden;whiteSpace=wrap;html=1;" parent="OBBwC5ucLsxBwonSJFA--137" vertex="1">
          <mxGeometry width="30" height="30" as="geometry">
            <mxRectangle width="30" height="30" as="alternateBounds" />
          </mxGeometry>
        </mxCell>
        <mxCell id="OBBwC5ucLsxBwonSJFA--139" value="Row 1" style="shape=partialRectangle;connectable=0;fillColor=none;top=0;left=0;bottom=0;right=0;align=left;spacingLeft=6;overflow=hidden;whiteSpace=wrap;html=1;" parent="OBBwC5ucLsxBwonSJFA--137" vertex="1">
          <mxGeometry x="30" width="150" height="30" as="geometry">
            <mxRectangle width="150" height="30" as="alternateBounds" />
          </mxGeometry>
        </mxCell>
        <mxCell id="OBBwC5ucLsxBwonSJFA--140" value="" style="shape=tableRow;horizontal=0;startSize=0;swimlaneHead=0;swimlaneBody=0;fillColor=none;collapsible=0;dropTarget=0;points=[[0,0.5],[1,0.5]];portConstraint=eastwest;top=0;left=0;right=0;bottom=0;" parent="OBBwC5ucLsxBwonSJFA--133" vertex="1">
          <mxGeometry y="90" width="180" height="30" as="geometry" />
        </mxCell>
        <mxCell id="OBBwC5ucLsxBwonSJFA--141" value="" style="shape=partialRectangle;connectable=0;fillColor=none;top=0;left=0;bottom=0;right=0;editable=1;overflow=hidden;whiteSpace=wrap;html=1;" parent="OBBwC5ucLsxBwonSJFA--140" vertex="1">
          <mxGeometry width="30" height="30" as="geometry">
            <mxRectangle width="30" height="30" as="alternateBounds" />
          </mxGeometry>
        </mxCell>
        <mxCell id="OBBwC5ucLsxBwonSJFA--142" value="Row 2" style="shape=partialRectangle;connectable=0;fillColor=none;top=0;left=0;bottom=0;right=0;align=left;spacingLeft=6;overflow=hidden;whiteSpace=wrap;html=1;" parent="OBBwC5ucLsxBwonSJFA--140" vertex="1">
          <mxGeometry x="30" width="150" height="30" as="geometry">
            <mxRectangle width="150" height="30" as="alternateBounds" />
          </mxGeometry>
        </mxCell>
        <mxCell id="OBBwC5ucLsxBwonSJFA--143" value="" style="shape=tableRow;horizontal=0;startSize=0;swimlaneHead=0;swimlaneBody=0;fillColor=none;collapsible=0;dropTarget=0;points=[[0,0.5],[1,0.5]];portConstraint=eastwest;top=0;left=0;right=0;bottom=0;" parent="OBBwC5ucLsxBwonSJFA--133" vertex="1">
          <mxGeometry y="120" width="180" height="30" as="geometry" />
        </mxCell>
        <mxCell id="OBBwC5ucLsxBwonSJFA--144" value="" style="shape=partialRectangle;connectable=0;fillColor=none;top=0;left=0;bottom=0;right=0;editable=1;overflow=hidden;whiteSpace=wrap;html=1;" parent="OBBwC5ucLsxBwonSJFA--143" vertex="1">
          <mxGeometry width="30" height="30" as="geometry">
            <mxRectangle width="30" height="30" as="alternateBounds" />
          </mxGeometry>
        </mxCell>
        <mxCell id="OBBwC5ucLsxBwonSJFA--145" value="Row 3" style="shape=partialRectangle;connectable=0;fillColor=none;top=0;left=0;bottom=0;right=0;align=left;spacingLeft=6;overflow=hidden;whiteSpace=wrap;html=1;" parent="OBBwC5ucLsxBwonSJFA--143" vertex="1">
          <mxGeometry x="30" width="150" height="30" as="geometry">
            <mxRectangle width="150" height="30" as="alternateBounds" />
          </mxGeometry>
        </mxCell>
        <mxCell id="OBBwC5ucLsxBwonSJFA--149" value="" style="edgeStyle=orthogonalEdgeStyle;rounded=0;orthogonalLoop=1;jettySize=auto;html=1;" parent="1" source="OBBwC5ucLsxBwonSJFA--146" target="OBBwC5ucLsxBwonSJFA--148" edge="1">
          <mxGeometry relative="1" as="geometry" />
        </mxCell>
        <mxCell id="OBBwC5ucLsxBwonSJFA--151" value="" style="edgeStyle=orthogonalEdgeStyle;rounded=0;orthogonalLoop=1;jettySize=auto;html=1;" parent="1" source="OBBwC5ucLsxBwonSJFA--146" target="OBBwC5ucLsxBwonSJFA--150" edge="1">
          <mxGeometry relative="1" as="geometry" />
        </mxCell>
        <mxCell id="OBBwC5ucLsxBwonSJFA--153" value="" style="edgeStyle=orthogonalEdgeStyle;rounded=0;orthogonalLoop=1;jettySize=auto;html=1;" parent="1" source="OBBwC5ucLsxBwonSJFA--146" target="OBBwC5ucLsxBwonSJFA--152" edge="1">
          <mxGeometry relative="1" as="geometry" />
        </mxCell>
        <mxCell id="OBBwC5ucLsxBwonSJFA--155" value="" style="edgeStyle=orthogonalEdgeStyle;rounded=0;orthogonalLoop=1;jettySize=auto;html=1;" parent="1" source="OBBwC5ucLsxBwonSJFA--146" target="OBBwC5ucLsxBwonSJFA--154" edge="1">
          <mxGeometry relative="1" as="geometry" />
        </mxCell>
        <mxCell id="OBBwC5ucLsxBwonSJFA--146" value="Addresses" style="whiteSpace=wrap;html=1;startSize=30;fontStyle=1;" parent="1" vertex="1">
          <mxGeometry x="1100" y="330" width="120" height="60" as="geometry" />
        </mxCell>
        <mxCell id="OBBwC5ucLsxBwonSJFA--148" value="Employee Filter" style="whiteSpace=wrap;html=1;startSize=30;fontStyle=1;" parent="1" vertex="1">
          <mxGeometry x="1020" y="450" width="120" height="60" as="geometry" />
        </mxCell>
        <mxCell id="OBBwC5ucLsxBwonSJFA--150" value="Contact" style="whiteSpace=wrap;html=1;startSize=30;fontStyle=1;" parent="1" vertex="1">
          <mxGeometry x="1170" y="450" width="120" height="60" as="geometry" />
        </mxCell>
        <mxCell id="OBBwC5ucLsxBwonSJFA--152" value="Delivery Options" style="whiteSpace=wrap;html=1;startSize=30;fontStyle=1;" parent="1" vertex="1">
          <mxGeometry x="1330" y="450" width="120" height="60" as="geometry" />
        </mxCell>
        <mxCell id="OBBwC5ucLsxBwonSJFA--154" value="Notification List" style="whiteSpace=wrap;html=1;startSize=30;fontStyle=1;" parent="1" vertex="1">
          <mxGeometry x="870" y="450" width="120" height="60" as="geometry" />
        </mxCell>
        <mxCell id="ScFpUApuR84vEXU12G21-8" value="" style="edgeStyle=orthogonalEdgeStyle;rounded=0;orthogonalLoop=1;jettySize=auto;html=1;flowAnimation=1;" edge="1" parent="1" source="OK6B9kiAFG73OhcTMnA2-1" target="OK6B9kiAFG73OhcTMnA2-18">
          <mxGeometry relative="1" as="geometry" />
        </mxCell>
        <mxCell id="OK6B9kiAFG73OhcTMnA2-1" value="&lt;font face=&quot;Verdana&quot;&gt;PayScan Service (InternalwebService)&lt;/font&gt;" style="rounded=1;whiteSpace=wrap;html=1;absoluteArcSize=1;arcSize=14;strokeWidth=2;" parent="1" vertex="1">
          <mxGeometry x="200" y="795" width="180" height="70" as="geometry" />
        </mxCell>
        <mxCell id="OK6B9kiAFG73OhcTMnA2-14" value="" style="edgeStyle=orthogonalEdgeStyle;rounded=0;orthogonalLoop=1;jettySize=auto;html=1;" parent="1" source="OK6B9kiAFG73OhcTMnA2-11" target="OK6B9kiAFG73OhcTMnA2-12" edge="1">
          <mxGeometry relative="1" as="geometry" />
        </mxCell>
        <mxCell id="OK6B9kiAFG73OhcTMnA2-11" value="" style="shape=actor;whiteSpace=wrap;html=1;" parent="1" vertex="1">
          <mxGeometry x="270" y="500" width="40" height="60" as="geometry" />
        </mxCell>
        <mxCell id="ScFpUApuR84vEXU12G21-10" value="" style="edgeStyle=orthogonalEdgeStyle;rounded=0;orthogonalLoop=1;jettySize=auto;html=1;" edge="1" parent="1" source="OK6B9kiAFG73OhcTMnA2-12" target="OK6B9kiAFG73OhcTMnA2-19">
          <mxGeometry relative="1" as="geometry" />
        </mxCell>
        <mxCell id="OK6B9kiAFG73OhcTMnA2-12" value="&lt;font face=&quot;Verdana&quot;&gt;LoginManager&lt;/font&gt;&lt;div&gt;&lt;font face=&quot;Verdana&quot;&gt;(InternalwebService)&lt;/font&gt;&lt;/div&gt;" style="rounded=1;whiteSpace=wrap;html=1;absoluteArcSize=1;arcSize=14;strokeWidth=2;" parent="1" vertex="1">
          <mxGeometry x="210" y="600" width="160" height="50" as="geometry" />
        </mxCell>
        <mxCell id="ScFpUApuR84vEXU12G21-6" value="" style="edgeStyle=orthogonalEdgeStyle;rounded=0;orthogonalLoop=1;jettySize=auto;html=1;flowAnimation=1;" edge="1" parent="1" source="OK6B9kiAFG73OhcTMnA2-18" target="ScFpUApuR84vEXU12G21-5">
          <mxGeometry relative="1" as="geometry" />
        </mxCell>
        <mxCell id="ScFpUApuR84vEXU12G21-9" value="" style="edgeStyle=orthogonalEdgeStyle;rounded=0;orthogonalLoop=1;jettySize=auto;html=1;" edge="1" parent="1" source="OK6B9kiAFG73OhcTMnA2-19" target="OK6B9kiAFG73OhcTMnA2-1">
          <mxGeometry relative="1" as="geometry" />
        </mxCell>
        <mxCell id="OK6B9kiAFG73OhcTMnA2-19" value="&lt;font face=&quot;Verdana&quot;&gt;(Scan)Machine&lt;/font&gt;" style="whiteSpace=wrap;html=1;" parent="1" vertex="1">
          <mxGeometry x="230" y="680" width="120" height="60" as="geometry" />
        </mxCell>
        <mxCell id="ScFpUApuR84vEXU12G21-19" value="" style="edgeStyle=orthogonalEdgeStyle;rounded=0;orthogonalLoop=1;jettySize=auto;html=1;" edge="1" parent="1" source="OK6B9kiAFG73OhcTMnA2-23">
          <mxGeometry relative="1" as="geometry">
            <mxPoint x="630" y="840" as="targetPoint" />
          </mxGeometry>
        </mxCell>
        <mxCell id="OK6B9kiAFG73OhcTMnA2-23" value="&lt;font face=&quot;Verdana&quot;&gt;DBSync&lt;/font&gt;&lt;div&gt;&lt;font face=&quot;Verdana&quot;&gt;(PayScan Sync)&lt;/font&gt;&lt;/div&gt;" style="rounded=1;whiteSpace=wrap;html=1;absoluteArcSize=1;arcSize=14;strokeWidth=2;" parent="1" vertex="1">
          <mxGeometry x="730" y="810" width="120" height="60" as="geometry" />
        </mxCell>
        <mxCell id="ScFpUApuR84vEXU12G21-5" value="&lt;font face=&quot;Verdana&quot;&gt;Escher.ScanMaster&lt;/font&gt;" style="shape=datastore;whiteSpace=wrap;html=1;" vertex="1" parent="1">
          <mxGeometry x="455" y="960" width="130" height="100" as="geometry" />
        </mxCell>
        <mxCell id="ScFpUApuR84vEXU12G21-15" value="" style="group" vertex="1" connectable="0" parent="1">
          <mxGeometry x="425" y="750" width="245" height="230" as="geometry" />
        </mxCell>
        <mxCell id="ScFpUApuR84vEXU12G21-14" value="ScansMover.MoveData()" style="swimlane;fontFamily=Verdana;" vertex="1" parent="ScFpUApuR84vEXU12G21-15">
          <mxGeometry width="210" height="140" as="geometry" />
        </mxCell>
        <mxCell id="OK6B9kiAFG73OhcTMnA2-18" value="&lt;font face=&quot;Verdana&quot;&gt;PayScan&lt;/font&gt;" style="shape=datastore;whiteSpace=wrap;html=1;" parent="ScFpUApuR84vEXU12G21-14" vertex="1">
          <mxGeometry x="65" y="50" width="60" height="60" as="geometry" />
        </mxCell>
        <mxCell id="ScFpUApuR84vEXU12G21-22" value="" style="edgeStyle=orthogonalEdgeStyle;rounded=0;orthogonalLoop=1;jettySize=auto;html=1;entryX=1;entryY=0.5;entryDx=0;entryDy=0;" edge="1" parent="1" source="ScFpUApuR84vEXU12G21-20" target="ScFpUApuR84vEXU12G21-14">
          <mxGeometry relative="1" as="geometry">
            <mxPoint x="680" y="940" as="targetPoint" />
          </mxGeometry>
        </mxCell>
        <mxCell id="ScFpUApuR84vEXU12G21-25" value="" style="edgeStyle=orthogonalEdgeStyle;rounded=0;orthogonalLoop=1;jettySize=auto;html=1;" edge="1" parent="1" source="ScFpUApuR84vEXU12G21-20" target="ScFpUApuR84vEXU12G21-24">
          <mxGeometry relative="1" as="geometry" />
        </mxCell>
        <mxCell id="ScFpUApuR84vEXU12G21-20" value="&lt;font face=&quot;Verdana&quot;&gt;DBSync Send File&lt;/font&gt;&lt;div&gt;&lt;font face=&quot;Verdana&quot;&gt;Types: {&lt;/font&gt;&lt;span style=&quot;font-family: Verdana; background-color: initial;&quot;&gt;UDS,&amp;nbsp;&lt;/span&gt;&lt;span style=&quot;font-family: Verdana; background-color: initial;&quot;&gt;California, Newark}&lt;/span&gt;&lt;/div&gt;&lt;div&gt;&lt;font face=&quot;Verdana&quot;&gt;&lt;br&gt;&lt;/font&gt;&lt;/div&gt;" style="rounded=1;whiteSpace=wrap;html=1;absoluteArcSize=1;arcSize=14;strokeWidth=2;" vertex="1" parent="1">
          <mxGeometry x="730" y="900" width="260" height="60" as="geometry" />
        </mxCell>
        <mxCell id="ScFpUApuR84vEXU12G21-51" value="" style="edgeStyle=orthogonalEdgeStyle;rounded=0;orthogonalLoop=1;jettySize=auto;html=1;" edge="1" parent="1" source="ScFpUApuR84vEXU12G21-24" target="ScFpUApuR84vEXU12G21-50">
          <mxGeometry relative="1" as="geometry" />
        </mxCell>
        <mxCell id="ScFpUApuR84vEXU12G21-24" value="&lt;font face=&quot;Verdana&quot;&gt;Get Manifest for Newark Delivery File&lt;/font&gt;" style="rounded=1;whiteSpace=wrap;html=1;absoluteArcSize=1;arcSize=14;strokeWidth=2;" vertex="1" parent="1">
          <mxGeometry x="730" y="1040" width="260" height="60" as="geometry" />
        </mxCell>
        <mxCell id="ScFpUApuR84vEXU12G21-42" value="" style="edgeStyle=orthogonalEdgeStyle;rounded=0;orthogonalLoop=1;jettySize=auto;html=1;shape=link;" edge="1" parent="1" source="ScFpUApuR84vEXU12G21-40" target="ScFpUApuR84vEXU12G21-24">
          <mxGeometry relative="1" as="geometry" />
        </mxCell>
        <mxCell id="ScFpUApuR84vEXU12G21-44" value="" style="edgeStyle=orthogonalEdgeStyle;rounded=0;orthogonalLoop=1;jettySize=auto;html=1;" edge="1" parent="1" source="ScFpUApuR84vEXU12G21-40" target="ScFpUApuR84vEXU12G21-43">
          <mxGeometry relative="1" as="geometry" />
        </mxCell>
        <mxCell id="ScFpUApuR84vEXU12G21-46" value="" style="edgeStyle=orthogonalEdgeStyle;rounded=0;orthogonalLoop=1;jettySize=auto;html=1;dashed=1;dashPattern=1 1;endArrow=none;endFill=0;fillColor=#ffe6cc;strokeColor=#d79b00;strokeWidth=3;" edge="1" parent="1" source="ScFpUApuR84vEXU12G21-40" target="ScFpUApuR84vEXU12G21-45">
          <mxGeometry relative="1" as="geometry" />
        </mxCell>
        <mxCell id="ScFpUApuR84vEXU12G21-40" value="XDeliveryManifest" style="whiteSpace=wrap;html=1;fontFamily=Verdana;startSize=30;fontStyle=1;" vertex="1" parent="1">
          <mxGeometry x="1030" y="1040" width="160" height="60" as="geometry" />
        </mxCell>
        <mxCell id="ScFpUApuR84vEXU12G21-43" value="&lt;span style=&quot;font-weight: normal;&quot;&gt;&lt;font style=&quot;font-size: 11px;&quot;&gt;XListValueId = QueueId&lt;/font&gt;&lt;/span&gt;" style="shape=document;whiteSpace=wrap;html=1;boundedLbl=1;fontFamily=Verdana;startSize=30;fontStyle=1;" vertex="1" parent="1">
          <mxGeometry x="1235" y="1040" width="150" height="60" as="geometry" />
        </mxCell>
        <mxCell id="ScFpUApuR84vEXU12G21-45" value="&lt;div&gt;&amp;lt;basefilename value=&quot;PaylocityWebPayFile&quot; /&amp;gt;&lt;/div&gt;&lt;div&gt;&amp;lt;remoteFileName value=&quot;&quot; /&amp;gt;&lt;/div&gt;&lt;div&gt;&amp;lt;fullFileName value=&quot;..\..\EscherFolders\CompetitiveAdvantage&quot; /&amp;gt;&lt;/div&gt;&lt;div&gt;&amp;lt;ftpUrl value=&quot;ftp://comp_paylocity:paylocity@ftp.competitive.e-courier.com&quot; /&amp;gt;&lt;/div&gt;&lt;div&gt;&amp;lt;ftpConnectionString value=&quot;&quot; /&amp;gt;&amp;lt;ftpPassiveMode value=&quot;True&quot; /&amp;gt;&amp;lt;FTPConnectionStringDirectory value=&quot;&quot; /&amp;gt;&lt;/div&gt;&lt;div&gt;&amp;lt;emailto value=&quot;production@paylocity.com&quot; /&amp;gt;&lt;/div&gt;&lt;div&gt;&amp;lt;emailSubject value=&quot;Competitive Advantage Barcode Delivery Report&quot; /&amp;gt;&lt;/div&gt;" style="whiteSpace=wrap;html=1;fontFamily=Verdana;startSize=30;fontStyle=0;align=left;verticalAlign=top;" vertex="1" parent="1">
          <mxGeometry x="850" y="1160" width="520" height="140" as="geometry" />
        </mxCell>
        <mxCell id="ScFpUApuR84vEXU12G21-57" value="" style="edgeStyle=orthogonalEdgeStyle;rounded=0;orthogonalLoop=1;jettySize=auto;html=1;entryX=0.413;entryY=1;entryDx=0;entryDy=0;entryPerimeter=0;exitX=0;exitY=0.5;exitDx=0;exitDy=0;" edge="1" parent="1" source="ScFpUApuR84vEXU12G21-50" target="ScFpUApuR84vEXU12G21-5">
          <mxGeometry relative="1" as="geometry">
            <mxPoint x="437.5" y="1190" as="targetPoint" />
          </mxGeometry>
        </mxCell>
        <mxCell id="ScFpUApuR84vEXU12G21-59" value="" style="edgeStyle=orthogonalEdgeStyle;rounded=0;orthogonalLoop=1;jettySize=auto;html=1;" edge="1" parent="1" source="ScFpUApuR84vEXU12G21-50" target="ScFpUApuR84vEXU12G21-58">
          <mxGeometry relative="1" as="geometry" />
        </mxCell>
        <mxCell id="ScFpUApuR84vEXU12G21-50" value="Filters:&lt;div&gt;Filter Type {ALL, LOCAL, QTR, HUBS }&amp;nbsp;&lt;div&gt;Scan Date&lt;/div&gt;&lt;/div&gt;" style="whiteSpace=wrap;html=1;rounded=1;arcSize=14;strokeWidth=2;fontFamily=Verdana;align=left;" vertex="1" parent="1">
          <mxGeometry x="580" y="1160" width="245" height="60" as="geometry" />
        </mxCell>
        <mxCell id="ScFpUApuR84vEXU12G21-61" value="" style="edgeStyle=orthogonalEdgeStyle;rounded=0;orthogonalLoop=1;jettySize=auto;html=1;flowAnimation=1;" edge="1" parent="1" source="ScFpUApuR84vEXU12G21-58" target="ScFpUApuR84vEXU12G21-60">
          <mxGeometry relative="1" as="geometry" />
        </mxCell>
        <mxCell id="ScFpUApuR84vEXU12G21-58" value="Build and send report (emailTo, emailSubject)" style="shape=document;whiteSpace=wrap;html=1;boundedLbl=1;fontFamily=Verdana;rounded=1;arcSize=14;strokeWidth=2;" vertex="1" parent="1">
          <mxGeometry x="608.75" y="1310" width="187.5" height="80" as="geometry" />
        </mxCell>
        <mxCell id="ScFpUApuR84vEXU12G21-63" value="" style="edgeStyle=orthogonalEdgeStyle;rounded=0;orthogonalLoop=1;jettySize=auto;html=1;" edge="1" parent="1" source="ScFpUApuR84vEXU12G21-60" target="ScFpUApuR84vEXU12G21-62">
          <mxGeometry relative="1" as="geometry" />
        </mxCell>
        <mxCell id="ScFpUApuR84vEXU12G21-64" value="Payrolls Sent" style="edgeLabel;html=1;align=center;verticalAlign=middle;resizable=0;points=[];" vertex="1" connectable="0" parent="ScFpUApuR84vEXU12G21-63">
          <mxGeometry x="0.0688" y="-1" relative="1" as="geometry">
            <mxPoint as="offset" />
          </mxGeometry>
        </mxCell>
        <mxCell id="ScFpUApuR84vEXU12G21-60" value="&lt;font face=&quot;Verdana&quot;&gt;Escher.ScanManifest&lt;/font&gt;" style="shape=datastore;whiteSpace=wrap;html=1;" vertex="1" parent="1">
          <mxGeometry x="638.75" y="1440" width="127.5" height="100" as="geometry" />
        </mxCell>
        <mxCell id="ScFpUApuR84vEXU12G21-62" value="&lt;font face=&quot;Verdana&quot;&gt;Escher.ScanManifestDetail&lt;/font&gt;" style="shape=datastore;whiteSpace=wrap;html=1;" vertex="1" parent="1">
          <mxGeometry x="890" y="1450" width="173.75" height="80" as="geometry" />
        </mxCell>
      </root>
    </mxGraphModel>
  </diagram>
</mxfile>
